<mxfile host="Electron" agent="Mozilla/5.0 (Windows NT 10.0; Win64; x64) AppleWebKit/537.36 (KHTML, like Gecko) draw.io/26.2.2 Chrome/134.0.6998.178 Electron/35.1.2 Safari/537.36" version="26.2.2">
  <diagram name="Page-1" id="2YBvvXClWsGukQMizWep">
    <mxGraphModel dx="985" dy="1703" grid="1" gridSize="10" guides="1" tooltips="1" connect="1" arrows="1" fold="1" page="1" pageScale="1" pageWidth="850" pageHeight="1100" math="0" shadow="0">
      <root>
        <mxCell id="0" />
        <mxCell id="1" parent="0" />
        <mxCell id="aM9ryv3xv72pqoxQDRHE-5" value="Update User Page" style="shape=umlLifeline;whiteSpace=wrap;html=1;container=0;dropTarget=0;collapsible=0;recursiveResize=0;outlineConnect=0;portConstraint=eastwest;newEdgeStyle={&quot;curved&quot;:0,&quot;rounded&quot;:0};points=[[0,0,0,0,5],[0,1,0,0,-5],[1,0,0,0,5],[1,1,0,0,-5]];perimeter=rectanglePerimeter;targetShapes=umlLifeline;participant=label;" parent="1" vertex="1">
          <mxGeometry x="325" y="10" width="100" height="298" as="geometry" />
        </mxCell>
        <mxCell id="aM9ryv3xv72pqoxQDRHE-6" value="" style="html=1;points=[];perimeter=orthogonalPerimeter;outlineConnect=0;targetShapes=umlLifeline;portConstraint=eastwest;newEdgeStyle={&quot;edgeStyle&quot;:&quot;elbowEdgeStyle&quot;,&quot;elbow&quot;:&quot;vertical&quot;,&quot;curved&quot;:0,&quot;rounded&quot;:0};" parent="aM9ryv3xv72pqoxQDRHE-5" vertex="1">
          <mxGeometry x="45" y="80" width="10" height="170" as="geometry" />
        </mxCell>
        <mxCell id="8NNwh5ONx_dd3bGrC2vy-99" value="" style="html=1;points=[[0,0,0,0,5],[0,1,0,0,-5],[1,0,0,0,5],[1,1,0,0,-5]];perimeter=orthogonalPerimeter;outlineConnect=0;targetShapes=umlLifeline;portConstraint=eastwest;newEdgeStyle={&quot;curved&quot;:0,&quot;rounded&quot;:0};" vertex="1" parent="aM9ryv3xv72pqoxQDRHE-5">
          <mxGeometry x="45" y="230" width="15" height="20" as="geometry" />
        </mxCell>
        <mxCell id="aM9ryv3xv72pqoxQDRHE-7" value="Click Update User&amp;nbsp;" style="html=1;verticalAlign=bottom;endArrow=block;edgeStyle=elbowEdgeStyle;elbow=vertical;curved=0;rounded=0;" parent="1" source="8NNwh5ONx_dd3bGrC2vy-27" target="aM9ryv3xv72pqoxQDRHE-6" edge="1">
          <mxGeometry relative="1" as="geometry">
            <mxPoint x="135" y="120" as="sourcePoint" />
            <Array as="points">
              <mxPoint x="180" y="120" />
            </Array>
          </mxGeometry>
        </mxCell>
        <mxCell id="8NNwh5ONx_dd3bGrC2vy-5" value="Database" style="shape=umlLifeline;perimeter=lifelinePerimeter;whiteSpace=wrap;html=1;container=0;dropTarget=0;collapsible=0;recursiveResize=0;outlineConnect=0;portConstraint=eastwest;newEdgeStyle={&quot;edgeStyle&quot;:&quot;elbowEdgeStyle&quot;,&quot;elbow&quot;:&quot;vertical&quot;,&quot;curved&quot;:0,&quot;rounded&quot;:0};" vertex="1" parent="1">
          <mxGeometry x="830" width="100" height="440" as="geometry" />
        </mxCell>
        <mxCell id="8NNwh5ONx_dd3bGrC2vy-6" value="" style="html=1;points=[];perimeter=orthogonalPerimeter;outlineConnect=0;targetShapes=umlLifeline;portConstraint=eastwest;newEdgeStyle={&quot;edgeStyle&quot;:&quot;elbowEdgeStyle&quot;,&quot;elbow&quot;:&quot;vertical&quot;,&quot;curved&quot;:0,&quot;rounded&quot;:0};" vertex="1" parent="8NNwh5ONx_dd3bGrC2vy-5">
          <mxGeometry x="45" y="80" width="10" height="360" as="geometry" />
        </mxCell>
        <mxCell id="8NNwh5ONx_dd3bGrC2vy-15" value="Request AllUser()" style="text;html=1;align=center;verticalAlign=middle;resizable=0;points=[];autosize=1;strokeColor=none;fillColor=none;" vertex="1" parent="1">
          <mxGeometry x="405" y="110" width="120" height="30" as="geometry" />
        </mxCell>
        <mxCell id="8NNwh5ONx_dd3bGrC2vy-17" value="" style="html=1;labelBackgroundColor=#ffffff;startArrow=none;startFill=0;startSize=6;endArrow=classic;endFill=1;endSize=6;jettySize=auto;orthogonalLoop=1;strokeWidth=1;dashed=1;fontSize=14;rounded=0;" edge="1" parent="1">
          <mxGeometry width="60" height="60" relative="1" as="geometry">
            <mxPoint x="375" y="129.99999999999997" as="sourcePoint" />
            <mxPoint x="565" y="129.99999999999997" as="targetPoint" />
            <Array as="points">
              <mxPoint x="445" y="129.99999999999997" />
              <mxPoint x="510" y="130" />
            </Array>
          </mxGeometry>
        </mxCell>
        <mxCell id="8NNwh5ONx_dd3bGrC2vy-27" value="" style="shape=umlLifeline;perimeter=lifelinePerimeter;whiteSpace=wrap;html=1;container=1;dropTarget=0;collapsible=0;recursiveResize=0;outlineConnect=0;portConstraint=eastwest;newEdgeStyle={&quot;curved&quot;:0,&quot;rounded&quot;:0};participant=umlActor;" vertex="1" parent="1">
          <mxGeometry x="115" y="-82" width="20" height="540" as="geometry" />
        </mxCell>
        <mxCell id="8NNwh5ONx_dd3bGrC2vy-62" value="" style="html=1;points=[];perimeter=orthogonalPerimeter;outlineConnect=0;targetShapes=umlLifeline;portConstraint=eastwest;newEdgeStyle={&quot;edgeStyle&quot;:&quot;elbowEdgeStyle&quot;,&quot;elbow&quot;:&quot;vertical&quot;,&quot;curved&quot;:0,&quot;rounded&quot;:0};" vertex="1" parent="8NNwh5ONx_dd3bGrC2vy-27">
          <mxGeometry x="5" y="198.5" width="10" height="341.5" as="geometry" />
        </mxCell>
        <mxCell id="8NNwh5ONx_dd3bGrC2vy-28" value="Admin" style="text;html=1;align=center;verticalAlign=middle;resizable=0;points=[];autosize=1;strokeColor=none;fillColor=none;" vertex="1" parent="1">
          <mxGeometry x="130" y="-82" width="60" height="30" as="geometry" />
        </mxCell>
        <mxCell id="8NNwh5ONx_dd3bGrC2vy-30" value="System" style="rounded=0;whiteSpace=wrap;html=1;" vertex="1" parent="1">
          <mxGeometry x="520" y="10" width="100" height="40" as="geometry" />
        </mxCell>
        <mxCell id="8NNwh5ONx_dd3bGrC2vy-31" value="" style="endArrow=none;dashed=1;html=1;rounded=0;entryX=0.5;entryY=1;entryDx=0;entryDy=0;" edge="1" parent="1" source="8NNwh5ONx_dd3bGrC2vy-33" target="8NNwh5ONx_dd3bGrC2vy-30">
          <mxGeometry width="50" height="50" relative="1" as="geometry">
            <mxPoint x="570" y="260" as="sourcePoint" />
            <mxPoint x="630" y="70" as="targetPoint" />
          </mxGeometry>
        </mxCell>
        <mxCell id="8NNwh5ONx_dd3bGrC2vy-32" value="" style="html=1;points=[];perimeter=orthogonalPerimeter;outlineConnect=0;targetShapes=umlLifeline;portConstraint=eastwest;newEdgeStyle={&quot;edgeStyle&quot;:&quot;elbowEdgeStyle&quot;,&quot;elbow&quot;:&quot;vertical&quot;,&quot;curved&quot;:0,&quot;rounded&quot;:0};" vertex="1" parent="1">
          <mxGeometry x="370" y="99.5" width="10" height="340.5" as="geometry" />
        </mxCell>
        <mxCell id="8NNwh5ONx_dd3bGrC2vy-34" value="" style="endArrow=none;dashed=1;html=1;rounded=0;entryX=0.5;entryY=1;entryDx=0;entryDy=0;" edge="1" parent="1" target="8NNwh5ONx_dd3bGrC2vy-33">
          <mxGeometry width="50" height="50" relative="1" as="geometry">
            <mxPoint x="570" y="260" as="sourcePoint" />
            <mxPoint x="570" y="50" as="targetPoint" />
          </mxGeometry>
        </mxCell>
        <mxCell id="8NNwh5ONx_dd3bGrC2vy-33" value="" style="html=1;points=[];perimeter=orthogonalPerimeter;outlineConnect=0;targetShapes=umlLifeline;portConstraint=eastwest;newEdgeStyle={&quot;edgeStyle&quot;:&quot;elbowEdgeStyle&quot;,&quot;elbow&quot;:&quot;vertical&quot;,&quot;curved&quot;:0,&quot;rounded&quot;:0};" vertex="1" parent="1">
          <mxGeometry x="565" y="123" width="10" height="317" as="geometry" />
        </mxCell>
        <mxCell id="8NNwh5ONx_dd3bGrC2vy-37" value="Displays All Active Users" style="html=1;verticalAlign=bottom;endArrow=block;edgeStyle=elbowEdgeStyle;elbow=vertical;curved=0;rounded=0;" edge="1" parent="1">
          <mxGeometry relative="1" as="geometry">
            <mxPoint x="370" y="289.13" as="sourcePoint" />
            <Array as="points" />
            <mxPoint x="129.9966666666667" y="289.13" as="targetPoint" />
          </mxGeometry>
        </mxCell>
        <mxCell id="8NNwh5ONx_dd3bGrC2vy-40" value="" style="html=1;labelBackgroundColor=#ffffff;startArrow=none;startFill=0;startSize=6;endArrow=classic;endFill=1;endSize=6;jettySize=auto;orthogonalLoop=1;strokeWidth=1;dashed=1;fontSize=14;rounded=0;" edge="1" parent="1" target="8NNwh5ONx_dd3bGrC2vy-6">
          <mxGeometry width="60" height="60" relative="1" as="geometry">
            <mxPoint x="575" y="139.99999999999997" as="sourcePoint" />
            <mxPoint x="810" y="140" as="targetPoint" />
            <Array as="points">
              <mxPoint x="645" y="139.99999999999997" />
              <mxPoint x="710" y="140" />
            </Array>
          </mxGeometry>
        </mxCell>
        <mxCell id="8NNwh5ONx_dd3bGrC2vy-42" value="GetAllUsers()" style="text;html=1;align=center;verticalAlign=middle;resizable=0;points=[];autosize=1;strokeColor=none;fillColor=none;" vertex="1" parent="1">
          <mxGeometry x="630" y="118" width="100" height="30" as="geometry" />
        </mxCell>
        <mxCell id="8NNwh5ONx_dd3bGrC2vy-45" value="" style="html=1;labelBackgroundColor=#ffffff;startArrow=none;startFill=0;startSize=6;endArrow=classic;endFill=1;endSize=6;jettySize=auto;orthogonalLoop=1;strokeWidth=1;dashed=1;fontSize=14;rounded=0;" edge="1" parent="1" source="8NNwh5ONx_dd3bGrC2vy-6" target="8NNwh5ONx_dd3bGrC2vy-33">
          <mxGeometry width="60" height="60" relative="1" as="geometry">
            <mxPoint x="810" y="160" as="sourcePoint" />
            <mxPoint x="575" y="139.99999999999997" as="targetPoint" />
            <Array as="points">
              <mxPoint x="700" y="170" />
              <mxPoint x="580" y="170" />
            </Array>
          </mxGeometry>
        </mxCell>
        <mxCell id="8NNwh5ONx_dd3bGrC2vy-46" value="AllUsersList()" style="text;html=1;align=center;verticalAlign=middle;resizable=0;points=[];autosize=1;strokeColor=none;fillColor=none;" vertex="1" parent="1">
          <mxGeometry x="685" y="148" width="90" height="30" as="geometry" />
        </mxCell>
        <mxCell id="8NNwh5ONx_dd3bGrC2vy-48" value="" style="html=1;labelBackgroundColor=#ffffff;startArrow=none;startFill=0;startSize=6;endArrow=classic;endFill=1;endSize=6;jettySize=auto;orthogonalLoop=1;strokeWidth=1;dashed=1;fontSize=14;rounded=0;" edge="1" parent="1" target="8NNwh5ONx_dd3bGrC2vy-32">
          <mxGeometry width="60" height="60" relative="1" as="geometry">
            <mxPoint x="565" y="179.99999999999997" as="sourcePoint" />
            <mxPoint x="390" y="180" as="targetPoint" />
            <Array as="points" />
          </mxGeometry>
        </mxCell>
        <mxCell id="8NNwh5ONx_dd3bGrC2vy-50" value="RetrievedUsers()" style="text;html=1;align=center;verticalAlign=middle;resizable=0;points=[];autosize=1;strokeColor=none;fillColor=none;" vertex="1" parent="1">
          <mxGeometry x="405" y="158" width="110" height="30" as="geometry" />
        </mxCell>
        <mxCell id="8NNwh5ONx_dd3bGrC2vy-52" value="" style="html=1;verticalAlign=bottom;endArrow=block;edgeStyle=elbowEdgeStyle;elbow=vertical;curved=0;rounded=0;" edge="1" parent="1">
          <mxGeometry relative="1" as="geometry">
            <mxPoint x="130.0007692307693" y="329.9999999999998" as="sourcePoint" />
            <Array as="points" />
            <mxPoint x="370.27" y="330" as="targetPoint" />
          </mxGeometry>
        </mxCell>
        <mxCell id="8NNwh5ONx_dd3bGrC2vy-54" value="Enter new Details of User Selected" style="text;html=1;align=center;verticalAlign=middle;resizable=0;points=[];autosize=1;strokeColor=none;fillColor=none;" vertex="1" parent="1">
          <mxGeometry x="135" y="300" width="210" height="30" as="geometry" />
        </mxCell>
        <mxCell id="8NNwh5ONx_dd3bGrC2vy-55" value="" style="html=1;labelBackgroundColor=#ffffff;startArrow=none;startFill=0;startSize=6;endArrow=classic;endFill=1;endSize=6;jettySize=auto;orthogonalLoop=1;strokeWidth=1;dashed=1;fontSize=14;rounded=0;" edge="1" parent="1" target="8NNwh5ONx_dd3bGrC2vy-33">
          <mxGeometry width="60" height="60" relative="1" as="geometry">
            <mxPoint x="382.5" y="350" as="sourcePoint" />
            <mxPoint x="560" y="350" as="targetPoint" />
            <Array as="points" />
          </mxGeometry>
        </mxCell>
        <mxCell id="8NNwh5ONx_dd3bGrC2vy-56" value="CaptureUpdatedDetails()" style="text;html=1;align=center;verticalAlign=middle;resizable=0;points=[];autosize=1;strokeColor=none;fillColor=none;" vertex="1" parent="1">
          <mxGeometry x="385" y="330" width="160" height="30" as="geometry" />
        </mxCell>
        <mxCell id="8NNwh5ONx_dd3bGrC2vy-58" value="" style="html=1;labelBackgroundColor=#ffffff;startArrow=none;startFill=0;startSize=6;endArrow=classic;endFill=1;endSize=6;jettySize=auto;orthogonalLoop=1;strokeWidth=1;dashed=1;fontSize=14;rounded=0;" edge="1" parent="1" target="8NNwh5ONx_dd3bGrC2vy-6">
          <mxGeometry width="60" height="60" relative="1" as="geometry">
            <mxPoint x="580.25" y="369.26" as="sourcePoint" />
            <mxPoint x="870" y="370" as="targetPoint" />
            <Array as="points">
              <mxPoint x="680.25" y="369.26" />
            </Array>
          </mxGeometry>
        </mxCell>
        <mxCell id="8NNwh5ONx_dd3bGrC2vy-59" value="UpdateUserDetails()" style="text;html=1;align=center;verticalAlign=middle;resizable=0;points=[];autosize=1;strokeColor=none;fillColor=none;" vertex="1" parent="1">
          <mxGeometry x="635" y="340" width="130" height="30" as="geometry" />
        </mxCell>
        <mxCell id="8NNwh5ONx_dd3bGrC2vy-60" value="&lt;b&gt;Update User&lt;/b&gt;" style="text;html=1;align=center;verticalAlign=middle;resizable=0;points=[];autosize=1;strokeColor=none;fillColor=none;" vertex="1" parent="1">
          <mxGeometry x="370" y="-270" width="90" height="30" as="geometry" />
        </mxCell>
        <mxCell id="8NNwh5ONx_dd3bGrC2vy-64" value="Display All Users&amp;nbsp;" style="html=1;verticalAlign=bottom;endArrow=block;edgeStyle=elbowEdgeStyle;elbow=vertical;curved=0;rounded=0;" edge="1" parent="1">
          <mxGeometry relative="1" as="geometry">
            <mxPoint x="370" y="188" as="sourcePoint" />
            <Array as="points">
              <mxPoint x="274.83" y="188" />
            </Array>
            <mxPoint x="129.9966666666667" y="188" as="targetPoint" />
          </mxGeometry>
        </mxCell>
        <mxCell id="8NNwh5ONx_dd3bGrC2vy-65" value="Check If They Still Active" style="html=1;verticalAlign=bottom;endArrow=block;edgeStyle=elbowEdgeStyle;elbow=horizontal;curved=0;rounded=0;" edge="1" parent="1">
          <mxGeometry relative="1" as="geometry">
            <mxPoint x="130" y="220" as="sourcePoint" />
            <Array as="points">
              <mxPoint x="280" y="220" />
              <mxPoint x="360" y="220" />
            </Array>
            <mxPoint x="370" y="220" as="targetPoint" />
          </mxGeometry>
        </mxCell>
        <mxCell id="8NNwh5ONx_dd3bGrC2vy-67" value="" style="html=1;labelBackgroundColor=#ffffff;startArrow=none;startFill=0;startSize=6;endArrow=classic;endFill=1;endSize=6;jettySize=auto;orthogonalLoop=1;strokeWidth=1;dashed=1;fontSize=14;rounded=0;" edge="1" parent="1">
          <mxGeometry width="60" height="60" relative="1" as="geometry">
            <mxPoint x="380" y="230" as="sourcePoint" />
            <mxPoint x="565" y="229.99999999999997" as="targetPoint" />
            <Array as="points">
              <mxPoint x="470" y="230" />
            </Array>
          </mxGeometry>
        </mxCell>
        <mxCell id="8NNwh5ONx_dd3bGrC2vy-68" value="CheckIfActive()" style="text;html=1;align=center;verticalAlign=middle;resizable=0;points=[];autosize=1;strokeColor=none;fillColor=none;" vertex="1" parent="1">
          <mxGeometry x="400" y="208" width="100" height="30" as="geometry" />
        </mxCell>
        <mxCell id="8NNwh5ONx_dd3bGrC2vy-69" value="" style="html=1;labelBackgroundColor=#ffffff;startArrow=none;startFill=0;startSize=6;endArrow=classic;endFill=1;endSize=6;jettySize=auto;orthogonalLoop=1;strokeWidth=1;dashed=1;fontSize=14;rounded=0;" edge="1" parent="1">
          <mxGeometry width="60" height="60" relative="1" as="geometry">
            <mxPoint x="575" y="238" as="sourcePoint" />
            <mxPoint x="875" y="238" as="targetPoint" />
            <Array as="points">
              <mxPoint x="580" y="238" />
              <mxPoint x="700" y="238" />
            </Array>
          </mxGeometry>
        </mxCell>
        <mxCell id="8NNwh5ONx_dd3bGrC2vy-71" value="GetAllActiveUsers()" style="text;html=1;align=center;verticalAlign=middle;resizable=0;points=[];autosize=1;strokeColor=none;fillColor=none;" vertex="1" parent="1">
          <mxGeometry x="670" y="208" width="130" height="30" as="geometry" />
        </mxCell>
        <mxCell id="8NNwh5ONx_dd3bGrC2vy-73" value="" style="html=1;labelBackgroundColor=#ffffff;startArrow=none;startFill=0;startSize=6;endArrow=classic;endFill=1;endSize=6;jettySize=auto;orthogonalLoop=1;strokeWidth=1;dashed=1;fontSize=14;rounded=0;" edge="1" parent="1">
          <mxGeometry width="60" height="60" relative="1" as="geometry">
            <mxPoint x="875" y="274.57" as="sourcePoint" />
            <mxPoint x="575" y="274.57" as="targetPoint" />
            <Array as="points">
              <mxPoint x="700" y="274.57" />
              <mxPoint x="580" y="274.57" />
            </Array>
          </mxGeometry>
        </mxCell>
        <mxCell id="8NNwh5ONx_dd3bGrC2vy-74" value="AllActiveUserList()" style="text;html=1;align=center;verticalAlign=middle;resizable=0;points=[];autosize=1;strokeColor=none;fillColor=none;" vertex="1" parent="1">
          <mxGeometry x="650" y="248" width="120" height="30" as="geometry" />
        </mxCell>
        <mxCell id="8NNwh5ONx_dd3bGrC2vy-78" value="" style="html=1;labelBackgroundColor=#ffffff;startArrow=none;startFill=0;startSize=6;endArrow=classic;endFill=1;endSize=6;jettySize=auto;orthogonalLoop=1;strokeWidth=1;dashed=1;fontSize=14;rounded=0;" edge="1" parent="1">
          <mxGeometry width="60" height="60" relative="1" as="geometry">
            <mxPoint x="565" y="280" as="sourcePoint" />
            <mxPoint x="380" y="280" as="targetPoint" />
            <Array as="points" />
          </mxGeometry>
        </mxCell>
        <mxCell id="8NNwh5ONx_dd3bGrC2vy-79" value="RetievedAtiveUserList" style="text;html=1;align=center;verticalAlign=middle;resizable=0;points=[];autosize=1;strokeColor=none;fillColor=none;" vertex="1" parent="1">
          <mxGeometry x="405" y="260" width="140" height="30" as="geometry" />
        </mxCell>
        <mxCell id="8NNwh5ONx_dd3bGrC2vy-100" value="NotActive()" style="html=1;align=left;spacingLeft=2;endArrow=block;rounded=0;edgeStyle=orthogonalEdgeStyle;curved=0;rounded=0;exitX=1.07;exitY=0.43;exitDx=0;exitDy=0;exitPerimeter=0;" edge="1" target="8NNwh5ONx_dd3bGrC2vy-99" parent="1" source="8NNwh5ONx_dd3bGrC2vy-32">
          <mxGeometry relative="1" as="geometry">
            <mxPoint x="395" y="230" as="sourcePoint" />
            <Array as="points">
              <mxPoint x="425" y="233" />
              <mxPoint x="425" y="260" />
            </Array>
          </mxGeometry>
        </mxCell>
        <mxCell id="8NNwh5ONx_dd3bGrC2vy-102" value="" style="html=1;verticalAlign=bottom;endArrow=block;edgeStyle=elbowEdgeStyle;elbow=vertical;curved=0;rounded=0;" edge="1" parent="1">
          <mxGeometry relative="1" as="geometry">
            <mxPoint x="370.0000000000001" y="430" as="sourcePoint" />
            <Array as="points" />
            <mxPoint x="130" y="430.1500000000001" as="targetPoint" />
          </mxGeometry>
        </mxCell>
        <mxCell id="8NNwh5ONx_dd3bGrC2vy-103" value="Updated Sucessfully" style="text;html=1;align=center;verticalAlign=middle;resizable=0;points=[];autosize=1;strokeColor=none;fillColor=none;" vertex="1" parent="1">
          <mxGeometry x="175" y="410" width="130" height="30" as="geometry" />
        </mxCell>
        <mxCell id="8NNwh5ONx_dd3bGrC2vy-104" value="" style="html=1;labelBackgroundColor=#ffffff;startArrow=none;startFill=0;startSize=6;endArrow=classic;endFill=1;endSize=6;jettySize=auto;orthogonalLoop=1;strokeWidth=1;dashed=1;fontSize=14;rounded=0;" edge="1" parent="1" source="8NNwh5ONx_dd3bGrC2vy-6" target="8NNwh5ONx_dd3bGrC2vy-33">
          <mxGeometry width="60" height="60" relative="1" as="geometry">
            <mxPoint x="885" y="390" as="sourcePoint" />
            <mxPoint x="575" y="390" as="targetPoint" />
            <Array as="points">
              <mxPoint x="780" y="410" />
            </Array>
          </mxGeometry>
        </mxCell>
        <mxCell id="8NNwh5ONx_dd3bGrC2vy-105" value="Updated User Details" style="text;html=1;align=center;verticalAlign=middle;resizable=0;points=[];autosize=1;strokeColor=none;fillColor=none;" vertex="1" parent="1">
          <mxGeometry x="650" y="388" width="140" height="30" as="geometry" />
        </mxCell>
        <mxCell id="8NNwh5ONx_dd3bGrC2vy-109" value="sd Update User" style="shape=umlFrame;whiteSpace=wrap;html=1;pointerEvents=0;" vertex="1" parent="1">
          <mxGeometry x="20" y="-167" width="1010" height="680" as="geometry" />
        </mxCell>
        <mxCell id="8NNwh5ONx_dd3bGrC2vy-110" value="&lt;b&gt;Precondition:&amp;nbsp;&lt;/b&gt;" style="text;html=1;align=center;verticalAlign=middle;resizable=0;points=[];autosize=1;strokeColor=none;fillColor=none;" vertex="1" parent="1">
          <mxGeometry x="40" y="-202" width="100" height="30" as="geometry" />
        </mxCell>
        <mxCell id="8NNwh5ONx_dd3bGrC2vy-111" value="The Admin is on the update user page" style="text;html=1;align=center;verticalAlign=middle;resizable=0;points=[];autosize=1;strokeColor=none;fillColor=none;" vertex="1" parent="1">
          <mxGeometry x="115" y="-202" width="230" height="30" as="geometry" />
        </mxCell>
        <mxCell id="8NNwh5ONx_dd3bGrC2vy-113" value="" style="html=1;labelBackgroundColor=#ffffff;startArrow=none;startFill=0;startSize=6;endArrow=classic;endFill=1;endSize=6;jettySize=auto;orthogonalLoop=1;strokeWidth=1;dashed=1;fontSize=14;rounded=0;" edge="1" parent="1">
          <mxGeometry width="60" height="60" relative="1" as="geometry">
            <mxPoint x="565" y="418" as="sourcePoint" />
            <mxPoint x="382.5" y="418" as="targetPoint" />
            <Array as="points" />
          </mxGeometry>
        </mxCell>
        <mxCell id="8NNwh5ONx_dd3bGrC2vy-114" value="System Updated Captured" style="text;html=1;align=center;verticalAlign=middle;resizable=0;points=[];autosize=1;strokeColor=none;fillColor=none;" vertex="1" parent="1">
          <mxGeometry x="395" y="388" width="160" height="30" as="geometry" />
        </mxCell>
      </root>
    </mxGraphModel>
  </diagram>
</mxfile>
